# xmcd
#
# Track frame offsets:
#	150
#	14049
#	27097
#	42137
#	61840
#	82473
#	99492
#	125768
#	144796
#	164318
#	179124
#	194024
#	207779
#
# Disc length: 3094 seconds
# Revision: 1
# Processed by: cddbd v1.5.2PL0 Copyright (c) Steve Scherf et al.
# Submitted via: dBpowerAMP V12.0
#
DISCID=bc0c140d
DTITLE=Juke Joints, The - Going To Chicago!
DYEAR=2010
DGENRE=Bass
TTITLE0=This Is It
TTITLE1=Magic Shoes
TTITLE2=Stax Sound
TTITLE3=Goodbye Baby
TTITLE4=Two Hearts
TTITLE5=Hard Times
TTITLE6=Bad Bad Feeling
TTITLE7=Time Will Tell
TTITLE8=Strollin' On Lincoln AV
TTITLE9=Addicted To The Blues
TTITLE10=Rock My Soul
TTITLE11=Mak A Stand
TTITLE12=Going To Chicago
EXTD=
EXTT0=
EXTT1=
EXTT2=
EXTT3=
EXTT4=
EXTT5=
EXTT6=
EXTT7=
EXTT8=
EXTT9=
EXTT10=
EXTT11=
EXTT12=
PLAYORDER=
